<?xml version="1.0" encoding="UTF-8" standalone="no"?>
<!DOCTYPE svg PUBLIC "-//W3C//DTD SVG 1.1//EN"
 "http://www.w3.org/Graphics/SVG/1.1/DTD/svg11.dtd">
<!-- Generated by graphviz version 2.40.1 (20161225.0304)
 -->
<!-- Title: dependencies Pages: 1 -->
<svg width="858pt" height="349pt"
 viewBox="0.00 0.00 858.00 349.00" xmlns="http://www.w3.org/2000/svg" xmlns:xlink="http://www.w3.org/1999/xlink">
<g id="graph0" class="graph" transform="scale(1 1) rotate(0) translate(4 345)">
<title>dependencies</title>
<polygon fill="#ffffff" stroke="transparent" points="-4,4 -4,-345 854,-345 854,4 -4,4"/>
<text text-anchor="start" x="404.0091" y="-42.4" font-family="sans-serif" font-weight="bold" font-size="14.00" fill="#000000">Legend</text>
<polygon fill="#ffffb3" stroke="transparent" points="191,-10 191,-30 211,-30 211,-10 191,-10"/>
<text text-anchor="start" x="214.629" y="-15.4" font-family="sans-serif" font-size="14.00" fill="#000000"> &#160;Declarations</text>
<polygon fill="#8dd3c7" stroke="transparent" points="304,-10 304,-30 324,-30 324,-10 304,-10"/>
<text text-anchor="start" x="327.7251" y="-15.4" font-family="sans-serif" font-size="14.00" fill="#000000"> &#160;Module</text>
<polygon fill="#80b1d3" stroke="transparent" points="390,-10 390,-30 410,-30 410,-10 390,-10"/>
<text text-anchor="start" x="413.7812" y="-15.4" font-family="sans-serif" font-size="14.00" fill="#000000"> &#160;Bootstrap</text>
<polygon fill="#fdb462" stroke="transparent" points="487,-10 487,-30 507,-30 507,-10 487,-10"/>
<text text-anchor="start" x="510.6732" y="-15.4" font-family="sans-serif" font-size="14.00" fill="#000000"> &#160;Providers</text>
<polygon fill="#fb8072" stroke="transparent" points="583,-10 583,-30 603,-30 603,-10 583,-10"/>
<text text-anchor="start" x="606.7258" y="-15.4" font-family="sans-serif" font-size="14.00" fill="#000000"> &#160;Exports</text>
<g id="clust1" class="cluster">
<title>cluster_SampleModule</title>
<polygon fill="none" stroke="#000000" stroke-dasharray="1,5" points="8,-70 8,-333 842,-333 842,-70 8,-70"/>
</g>
<g id="clust2" class="cluster">
<title>cluster_SampleModule_declarations</title>
<polygon fill="none" stroke="#000000" points="29,-143 29,-195 804,-195 804,-143 29,-143"/>
</g>
<g id="clust5" class="cluster">
<title>cluster_SampleModule_GroupMultiSelectComponent_providers</title>
<polygon fill="none" stroke="#000000" points="16,-78 16,-130 834,-130 834,-78 16,-78"/>
</g>
<g id="clust10" class="cluster">
<title>cluster_SampleModule_exports</title>
<polygon fill="none" stroke="#000000" points="33,-273 33,-325 736,-325 736,-273 33,-273"/>
</g>
<!-- ClickOutsideDirective -->
<g id="node1" class="node">
<title>ClickOutsideDirective</title>
<polygon fill="#ffffb3" stroke="#000000" points="795.9622,-187 654.0378,-187 654.0378,-151 795.9622,-151 795.9622,-187"/>
<text text-anchor="middle" x="725" y="-164.8" font-family="Times,serif" font-size="14.00" fill="#000000">ClickOutsideDirective</text>
</g>
<!-- SampleModule -->
<g id="node7" class="node">
<title>SampleModule</title>
<polygon fill="#8dd3c7" stroke="#000000" points="358.5438,-252 355.5438,-256 334.5438,-256 331.5438,-252 257.4562,-252 257.4562,-216 358.5438,-216 358.5438,-252"/>
<text text-anchor="middle" x="308" y="-229.8" font-family="Times,serif" font-size="14.00" fill="#000000">SampleModule</text>
</g>
<!-- ClickOutsideDirective&#45;&gt;SampleModule -->
<g id="edge1" class="edge">
<title>ClickOutsideDirective&#45;&gt;SampleModule</title>
<path fill="none" stroke="#000000" d="M690.875,-187.2667C690.875,-205.5552 690.875,-231 690.875,-231 690.875,-231 368.8428,-231 368.8428,-231"/>
<polygon fill="#000000" stroke="#000000" points="368.8429,-227.5001 358.8428,-231 368.8428,-234.5001 368.8429,-227.5001"/>
</g>
<!-- FilterPipe -->
<g id="node2" class="node">
<title>FilterPipe</title>
<polygon fill="#ffffb3" stroke="#000000" points="635.7177,-187 564.2823,-187 564.2823,-151 635.7177,-151 635.7177,-187"/>
<text text-anchor="middle" x="600" y="-164.8" font-family="Times,serif" font-size="14.00" fill="#000000">FilterPipe</text>
</g>
<!-- FilterPipe&#45;&gt;SampleModule -->
<g id="edge2" class="edge">
<title>FilterPipe&#45;&gt;SampleModule</title>
<path fill="none" stroke="#000000" d="M573.3301,-187.0091C573.3301,-203.0494 573.3301,-224 573.3301,-224 573.3301,-224 368.8444,-224 368.8444,-224"/>
<polygon fill="#000000" stroke="#000000" points="368.8444,-220.5001 358.8444,-224 368.8443,-227.5001 368.8444,-220.5001"/>
</g>
<!-- GroupMultiSelectComponent -->
<g id="node3" class="node">
<title>GroupMultiSelectComponent</title>
<polygon fill="#ffffb3" stroke="#000000" points="546.4241,-187 363.5759,-187 363.5759,-151 546.4241,-151 546.4241,-187"/>
<text text-anchor="middle" x="455" y="-164.8" font-family="Times,serif" font-size="14.00" fill="#000000">GroupMultiSelectComponent</text>
</g>
<!-- GroupMultiSelectComponent&#45;&gt;SampleModule -->
<g id="edge3" class="edge">
<title>GroupMultiSelectComponent&#45;&gt;SampleModule</title>
<path fill="none" stroke="#000000" d="M363.653,-169C356.6695,-169 352.2662,-169 352.2662,-169 352.2662,-169 352.2662,-205.8939 352.2662,-205.8939"/>
<polygon fill="#000000" stroke="#000000" points="348.7662,-205.8938 352.2662,-215.8939 355.7662,-205.8939 348.7662,-205.8938"/>
</g>
<!-- ScrollDirective -->
<g id="node4" class="node">
<title>ScrollDirective</title>
<polygon fill="#ffffb3" stroke="#000000" points="345.5229,-187 244.4771,-187 244.4771,-151 345.5229,-151 345.5229,-187"/>
<text text-anchor="middle" x="295" y="-164.8" font-family="Times,serif" font-size="14.00" fill="#000000">ScrollDirective</text>
</g>
<!-- ScrollDirective&#45;&gt;SampleModule -->
<g id="edge6" class="edge">
<title>ScrollDirective&#45;&gt;SampleModule</title>
<path fill="none" stroke="#000000" d="M301.4948,-187.1061C301.4948,-187.1061 301.4948,-205.991 301.4948,-205.991"/>
<polygon fill="#000000" stroke="#000000" points="297.9948,-205.9909 301.4948,-215.991 304.9948,-205.991 297.9948,-205.9909"/>
</g>
<!-- setPosition -->
<g id="node5" class="node">
<title>setPosition</title>
<polygon fill="#ffffb3" stroke="#000000" points="226.9501,-187 149.0499,-187 149.0499,-151 226.9501,-151 226.9501,-187"/>
<text text-anchor="middle" x="188" y="-164.8" font-family="Times,serif" font-size="14.00" fill="#000000">setPosition</text>
</g>
<!-- setPosition&#45;&gt;SampleModule -->
<g id="edge7" class="edge">
<title>setPosition&#45;&gt;SampleModule</title>
<path fill="none" stroke="#000000" d="M191.625,-187.0091C191.625,-203.0494 191.625,-224 191.625,-224 191.625,-224 247.2948,-224 247.2948,-224"/>
<polygon fill="#000000" stroke="#000000" points="247.2948,-227.5001 257.2948,-224 247.2947,-220.5001 247.2948,-227.5001"/>
</g>
<!-- styleDirective -->
<g id="node6" class="node">
<title>styleDirective</title>
<polygon fill="#ffffb3" stroke="#000000" points="131.0244,-187 36.9756,-187 36.9756,-151 131.0244,-151 131.0244,-187"/>
<text text-anchor="middle" x="84" y="-164.8" font-family="Times,serif" font-size="14.00" fill="#000000">styleDirective</text>
</g>
<!-- styleDirective&#45;&gt;SampleModule -->
<g id="edge8" class="edge">
<title>styleDirective&#45;&gt;SampleModule</title>
<path fill="none" stroke="#000000" d="M86.125,-187.2667C86.125,-205.5552 86.125,-231 86.125,-231 86.125,-231 247.3755,-231 247.3755,-231"/>
<polygon fill="#000000" stroke="#000000" points="247.3755,-234.5001 257.3755,-231 247.3755,-227.5001 247.3755,-234.5001"/>
</g>
<!-- ClickOutsideDirective  -->
<g id="node10" class="node">
<title>ClickOutsideDirective </title>
<polygon fill="#fb8072" stroke="#000000" points="727.9629,-317 582.0371,-317 582.0371,-281 727.9629,-281 727.9629,-317"/>
<text text-anchor="middle" x="655" y="-294.8" font-family="Times,serif" font-size="14.00" fill="#000000">ClickOutsideDirective </text>
</g>
<!-- SampleModule&#45;&gt;ClickOutsideDirective  -->
<g id="edge9" class="edge">
<title>SampleModule&#45;&gt;ClickOutsideDirective </title>
<path fill="none" stroke="#000000" stroke-dasharray="5,2" d="M358.7099,-238C444.4751,-238 608.9388,-238 608.9388,-238 608.9388,-238 608.9388,-270.698 608.9388,-270.698"/>
<polygon fill="#000000" stroke="#000000" points="605.4389,-270.698 608.9388,-280.698 612.4389,-270.698 605.4389,-270.698"/>
</g>
<!-- GroupMultiSelectComponent  -->
<g id="node11" class="node">
<title>GroupMultiSelectComponent </title>
<polygon fill="#fb8072" stroke="#000000" points="563.9236,-317 378.0764,-317 378.0764,-281 563.9236,-281 563.9236,-317"/>
<text text-anchor="middle" x="471" y="-294.8" font-family="Times,serif" font-size="14.00" fill="#000000">GroupMultiSelectComponent </text>
</g>
<!-- SampleModule&#45;&gt;GroupMultiSelectComponent  -->
<g id="edge10" class="edge">
<title>SampleModule&#45;&gt;GroupMultiSelectComponent </title>
<path fill="none" stroke="#000000" stroke-dasharray="5,2" d="M358.8934,-245C403.7866,-245 462.125,-245 462.125,-245 462.125,-245 462.125,-270.7181 462.125,-270.7181"/>
<polygon fill="#000000" stroke="#000000" points="458.6251,-270.718 462.125,-280.7181 465.6251,-270.7181 458.6251,-270.718"/>
</g>
<!-- ScrollDirective  -->
<g id="node12" class="node">
<title>ScrollDirective </title>
<polygon fill="#fb8072" stroke="#000000" points="360.5218,-317 255.4782,-317 255.4782,-281 360.5218,-281 360.5218,-317"/>
<text text-anchor="middle" x="308" y="-294.8" font-family="Times,serif" font-size="14.00" fill="#000000">ScrollDirective </text>
</g>
<!-- SampleModule&#45;&gt;ScrollDirective  -->
<g id="edge11" class="edge">
<title>SampleModule&#45;&gt;ScrollDirective </title>
<path fill="none" stroke="#000000" stroke-dasharray="5,2" d="M308,-252.1061C308,-252.1061 308,-270.991 308,-270.991"/>
<polygon fill="#000000" stroke="#000000" points="304.5001,-270.9909 308,-280.991 311.5001,-270.991 304.5001,-270.9909"/>
</g>
<!-- setPosition  -->
<g id="node13" class="node">
<title>setPosition </title>
<polygon fill="#fb8072" stroke="#000000" points="237.4488,-317 156.5512,-317 156.5512,-281 237.4488,-281 237.4488,-317"/>
<text text-anchor="middle" x="197" y="-294.8" font-family="Times,serif" font-size="14.00" fill="#000000">setPosition </text>
</g>
<!-- SampleModule&#45;&gt;setPosition  -->
<g id="edge12" class="edge">
<title>SampleModule&#45;&gt;setPosition </title>
<path fill="none" stroke="#000000" stroke-dasharray="5,2" d="M257.3732,-245C243.4504,-245 232.0994,-245 232.0994,-245 232.0994,-245 232.0994,-270.7181 232.0994,-270.7181"/>
<polygon fill="#000000" stroke="#000000" points="228.5995,-270.718 232.0994,-280.7181 235.5995,-270.7181 228.5995,-270.718"/>
</g>
<!-- styleDirective  -->
<g id="node14" class="node">
<title>styleDirective </title>
<polygon fill="#fb8072" stroke="#000000" points="139.0232,-317 40.9768,-317 40.9768,-281 139.0232,-281 139.0232,-317"/>
<text text-anchor="middle" x="90" y="-294.8" font-family="Times,serif" font-size="14.00" fill="#000000">styleDirective </text>
</g>
<!-- SampleModule&#45;&gt;styleDirective  -->
<g id="edge13" class="edge">
<title>SampleModule&#45;&gt;styleDirective </title>
<path fill="none" stroke="#000000" stroke-dasharray="5,2" d="M257.0702,-238C206.0798,-238 135.1366,-238 135.1366,-238 135.1366,-238 135.1366,-270.698 135.1366,-270.698"/>
<polygon fill="#000000" stroke="#000000" points="131.6367,-270.698 135.1366,-280.698 138.6367,-270.698 131.6367,-270.698"/>
</g>
<!-- DROPDOWN_CONTROL_VALUE_ACCESSOR -->
<g id="node8" class="node">
<title>DROPDOWN_CONTROL_VALUE_ACCESSOR</title>
<ellipse fill="#fdb462" stroke="#000000" cx="616" cy="-104" rx="209.5159" ry="18"/>
<text text-anchor="middle" x="616" y="-99.8" font-family="Times,serif" font-size="14.00" fill="#000000">DROPDOWN_CONTROL_VALUE_ACCESSOR</text>
</g>
<!-- DROPDOWN_CONTROL_VALUE_ACCESSOR&#45;&gt;GroupMultiSelectComponent -->
<g id="edge4" class="edge">
<title>DROPDOWN_CONTROL_VALUE_ACCESSOR&#45;&gt;GroupMultiSelectComponent</title>
<path fill="none" stroke="#000000" d="M476.3519,-117.468C476.3519,-117.468 476.3519,-140.8642 476.3519,-140.8642"/>
<polygon fill="#000000" stroke="#000000" points="472.852,-140.8641 476.3519,-150.8642 479.852,-140.8642 472.852,-140.8641"/>
</g>
<!-- DROPDOWN_CONTROL_VALIDATION -->
<g id="node9" class="node">
<title>DROPDOWN_CONTROL_VALIDATION</title>
<ellipse fill="#fdb462" stroke="#000000" cx="206" cy="-104" rx="182.2476" ry="18"/>
<text text-anchor="middle" x="206" y="-99.8" font-family="Times,serif" font-size="14.00" fill="#000000">DROPDOWN_CONTROL_VALIDATION</text>
</g>
<!-- DROPDOWN_CONTROL_VALIDATION&#45;&gt;GroupMultiSelectComponent -->
<g id="edge5" class="edge">
<title>DROPDOWN_CONTROL_VALIDATION&#45;&gt;GroupMultiSelectComponent</title>
<path fill="none" stroke="#000000" d="M375.956,-110.4701C375.956,-110.4701 375.956,-140.7831 375.956,-140.7831"/>
<polygon fill="#000000" stroke="#000000" points="372.4561,-140.7831 375.956,-150.7831 379.4561,-140.7831 372.4561,-140.7831"/>
</g>
</g>
</svg>
