<?xml version="1.0" encoding="UTF-8" standalone="no"?>
<!DOCTYPE svg PUBLIC "-//W3C//DTD SVG 1.1//EN"
 "http://www.w3.org/Graphics/SVG/1.1/DTD/svg11.dtd">
<!-- Generated by graphviz version 2.40.1 (20161225.0304)
 -->
<!-- Title: dependencies Pages: 1 -->
<svg width="1569pt" height="425pt"
 viewBox="0.00 0.00 1569.00 425.00" xmlns="http://www.w3.org/2000/svg" xmlns:xlink="http://www.w3.org/1999/xlink">
<g id="graph0" class="graph" transform="scale(1 1) rotate(0) translate(4 421)">
<title>dependencies</title>
<polygon fill="#ffffff" stroke="transparent" points="-4,4 -4,-421 1565,-421 1565,4 -4,4"/>
<text text-anchor="start" x="759.5091" y="-42.4" font-family="sans-serif" font-weight="bold" font-size="14.00" fill="#000000">Legend</text>
<polygon fill="#ffffb3" stroke="transparent" points="546.5,-10 546.5,-30 566.5,-30 566.5,-10 546.5,-10"/>
<text text-anchor="start" x="570.129" y="-15.4" font-family="sans-serif" font-size="14.00" fill="#000000"> &#160;Declarations</text>
<polygon fill="#8dd3c7" stroke="transparent" points="659.5,-10 659.5,-30 679.5,-30 679.5,-10 659.5,-10"/>
<text text-anchor="start" x="683.2251" y="-15.4" font-family="sans-serif" font-size="14.00" fill="#000000"> &#160;Module</text>
<polygon fill="#80b1d3" stroke="transparent" points="745.5,-10 745.5,-30 765.5,-30 765.5,-10 745.5,-10"/>
<text text-anchor="start" x="769.2812" y="-15.4" font-family="sans-serif" font-size="14.00" fill="#000000"> &#160;Bootstrap</text>
<polygon fill="#fdb462" stroke="transparent" points="842.5,-10 842.5,-30 862.5,-30 862.5,-10 842.5,-10"/>
<text text-anchor="start" x="866.1732" y="-15.4" font-family="sans-serif" font-size="14.00" fill="#000000"> &#160;Providers</text>
<polygon fill="#fb8072" stroke="transparent" points="938.5,-10 938.5,-30 958.5,-30 958.5,-10 938.5,-10"/>
<text text-anchor="start" x="962.2258" y="-15.4" font-family="sans-serif" font-size="14.00" fill="#000000"> &#160;Exports</text>
<g id="clust1" class="cluster">
<title>cluster_AppModule</title>
<polygon fill="none" stroke="#000000" stroke-dasharray="1,5" points="883,-211 883,-409 1187,-409 1187,-211 883,-211"/>
</g>
<g id="clust2" class="cluster">
<title>cluster_AppModule_declarations</title>
<polygon fill="none" stroke="#000000" points="1057,-219 1057,-271 1179,-271 1179,-219 1057,-219"/>
</g>
<g id="clust4" class="cluster">
<title>cluster_AppModule_imports</title>
<polygon fill="none" stroke="#000000" points="891,-219 891,-271 1049,-271 1049,-219 891,-219"/>
</g>
<g id="clust6" class="cluster">
<title>cluster_AppModule_bootstrap</title>
<polygon fill="none" stroke="#000000" points="981,-349 981,-401 1105,-401 1105,-349 981,-349"/>
</g>
<g id="clust8" class="cluster">
<title>cluster_Ng4GroupMultiSelect</title>
<polygon fill="none" stroke="#000000" stroke-dasharray="1,5" points="8,-70 8,-203 1553,-203 1553,-70 8,-70"/>
</g>
<g id="clust9" class="cluster">
<title>cluster_Ng4GroupMultiSelect_declarations</title>
<polygon fill="none" stroke="#000000" points="274,-143 274,-195 1049,-195 1049,-143 274,-143"/>
</g>
<g id="clust12" class="cluster">
<title>cluster_Ng4GroupMultiSelect_GroupMultiSelectComponent_providers</title>
<polygon fill="none" stroke="#000000" points="16,-78 16,-130 834,-130 834,-78 16,-78"/>
</g>
<g id="clust17" class="cluster">
<title>cluster_Ng4GroupMultiSelect_exports</title>
<polygon fill="none" stroke="#000000" points="842,-78 842,-130 1545,-130 1545,-78 842,-78"/>
</g>
<!-- AppComponent -->
<g id="node1" class="node">
<title>AppComponent</title>
<polygon fill="#ffffb3" stroke="#000000" points="1170.9399,-263 1065.0601,-263 1065.0601,-227 1170.9399,-227 1170.9399,-263"/>
<text text-anchor="middle" x="1118" y="-240.8" font-family="Times,serif" font-size="14.00" fill="#000000">AppComponent</text>
</g>
<!-- AppModule -->
<g id="node2" class="node">
<title>AppModule</title>
<polygon fill="#8dd3c7" stroke="#000000" points="1084.6571,-328 1081.6571,-332 1060.6571,-332 1057.6571,-328 1001.3429,-328 1001.3429,-292 1084.6571,-292 1084.6571,-328"/>
<text text-anchor="middle" x="1043" y="-305.8" font-family="Times,serif" font-size="14.00" fill="#000000">AppModule</text>
</g>
<!-- AppComponent&#45;&gt;AppModule -->
<g id="edge1" class="edge">
<title>AppComponent&#45;&gt;AppModule</title>
<path fill="none" stroke="#000000" d="M1075.0543,-263.1061C1075.0543,-263.1061 1075.0543,-281.991 1075.0543,-281.991"/>
<polygon fill="#000000" stroke="#000000" points="1071.5544,-281.9909 1075.0543,-291.991 1078.5544,-281.991 1071.5544,-281.9909"/>
</g>
<!-- AppComponent  -->
<g id="node4" class="node">
<title>AppComponent </title>
<polygon fill="#80b1d3" stroke="#000000" points="1097.439,-393 988.561,-393 988.561,-357 1097.439,-357 1097.439,-393"/>
<text text-anchor="middle" x="1043" y="-370.8" font-family="Times,serif" font-size="14.00" fill="#000000">AppComponent </text>
</g>
<!-- AppModule&#45;&gt;AppComponent  -->
<g id="edge3" class="edge">
<title>AppModule&#45;&gt;AppComponent </title>
<path fill="none" stroke="#000000" stroke-dasharray="1,5" d="M1043,-328.1061C1043,-328.1061 1043,-346.991 1043,-346.991"/>
<polygon fill="#000000" stroke="#000000" points="1039.5001,-346.9909 1043,-356.991 1046.5001,-346.991 1039.5001,-346.9909"/>
</g>
<!-- Ng4GroupMultiSelect -->
<g id="node3" class="node">
<title>Ng4GroupMultiSelect</title>
<polygon fill="#8dd3c7" stroke="#000000" points="1040.6979,-263 1037.6979,-267 1016.6979,-267 1013.6979,-263 899.3021,-263 899.3021,-227 1040.6979,-227 1040.6979,-263"/>
<text text-anchor="middle" x="970" y="-240.8" font-family="Times,serif" font-size="14.00" fill="#000000">Ng4GroupMultiSelect</text>
</g>
<!-- Ng4GroupMultiSelect&#45;&gt;AppModule -->
<g id="edge2" class="edge">
<title>Ng4GroupMultiSelect&#45;&gt;AppModule</title>
<path fill="none" stroke="#000000" d="M1020.8854,-263.1061C1020.8854,-263.1061 1020.8854,-281.991 1020.8854,-281.991"/>
<polygon fill="#000000" stroke="#000000" points="1017.3854,-281.9909 1020.8854,-291.991 1024.3854,-281.991 1017.3854,-281.9909"/>
</g>
<!-- ClickOutsideDirective  -->
<g id="node13" class="node">
<title>ClickOutsideDirective </title>
<polygon fill="#fb8072" stroke="#000000" points="995.9629,-122 850.0371,-122 850.0371,-86 995.9629,-86 995.9629,-122"/>
<text text-anchor="middle" x="923" y="-99.8" font-family="Times,serif" font-size="14.00" fill="#000000">ClickOutsideDirective </text>
</g>
<!-- Ng4GroupMultiSelect&#45;&gt;ClickOutsideDirective  -->
<g id="edge12" class="edge">
<title>Ng4GroupMultiSelect&#45;&gt;ClickOutsideDirective </title>
<path fill="none" stroke="#000000" stroke-dasharray="5,2" d="M899.3271,-233C893.515,-233 889.8138,-233 889.8138,-233 889.8138,-233 889.8138,-132.2089 889.8138,-132.2089"/>
<polygon fill="#000000" stroke="#000000" points="893.3139,-132.2089 889.8138,-122.2089 886.3139,-132.209 893.3139,-132.2089"/>
</g>
<!-- GroupMultiSelectComponent  -->
<g id="node14" class="node">
<title>GroupMultiSelectComponent </title>
<polygon fill="#fb8072" stroke="#000000" points="1199.9236,-122 1014.0764,-122 1014.0764,-86 1199.9236,-86 1199.9236,-122"/>
<text text-anchor="middle" x="1107" y="-99.8" font-family="Times,serif" font-size="14.00" fill="#000000">GroupMultiSelectComponent </text>
</g>
<!-- Ng4GroupMultiSelect&#45;&gt;GroupMultiSelectComponent  -->
<g id="edge13" class="edge">
<title>Ng4GroupMultiSelect&#45;&gt;GroupMultiSelectComponent </title>
<path fill="none" stroke="#000000" stroke-dasharray="5,2" d="M1040.8646,-245C1048.2548,-245 1053.1308,-245 1053.1308,-245 1053.1308,-245 1053.1308,-132.1446 1053.1308,-132.1446"/>
<polygon fill="#000000" stroke="#000000" points="1056.6309,-132.1446 1053.1308,-122.1446 1049.6309,-132.1447 1056.6309,-132.1446"/>
</g>
<!-- ScrollDirective  -->
<g id="node15" class="node">
<title>ScrollDirective </title>
<polygon fill="#fb8072" stroke="#000000" points="1322.5218,-122 1217.4782,-122 1217.4782,-86 1322.5218,-86 1322.5218,-122"/>
<text text-anchor="middle" x="1270" y="-99.8" font-family="Times,serif" font-size="14.00" fill="#000000">ScrollDirective </text>
</g>
<!-- Ng4GroupMultiSelect&#45;&gt;ScrollDirective  -->
<g id="edge14" class="edge">
<title>Ng4GroupMultiSelect&#45;&gt;ScrollDirective </title>
<path fill="none" stroke="#000000" stroke-dasharray="5,2" d="M955.8802,-226.8533C955.8802,-213.2605 955.8802,-197 955.8802,-197 955.8802,-197 1270,-197 1270,-197 1270,-197 1270,-132.3738 1270,-132.3738"/>
<polygon fill="#000000" stroke="#000000" points="1273.5001,-132.3738 1270,-122.3738 1266.5001,-132.3738 1273.5001,-132.3738"/>
</g>
<!-- setPosition  -->
<g id="node16" class="node">
<title>setPosition </title>
<polygon fill="#fb8072" stroke="#000000" points="1421.4488,-122 1340.5512,-122 1340.5512,-86 1421.4488,-86 1421.4488,-122"/>
<text text-anchor="middle" x="1381" y="-99.8" font-family="Times,serif" font-size="14.00" fill="#000000">setPosition </text>
</g>
<!-- Ng4GroupMultiSelect&#45;&gt;setPosition  -->
<g id="edge15" class="edge">
<title>Ng4GroupMultiSelect&#45;&gt;setPosition </title>
<path fill="none" stroke="#000000" stroke-dasharray="5,2" d="M984.1198,-226.8903C984.1198,-217.103 984.1198,-207 984.1198,-207 984.1198,-207 1381,-207 1381,-207 1381,-207 1381,-132.4143 1381,-132.4143"/>
<polygon fill="#000000" stroke="#000000" points="1384.5001,-132.4143 1381,-122.4143 1377.5001,-132.4144 1384.5001,-132.4143"/>
</g>
<!-- styleDirective  -->
<g id="node17" class="node">
<title>styleDirective </title>
<polygon fill="#fb8072" stroke="#000000" points="1537.0232,-122 1438.9768,-122 1438.9768,-86 1537.0232,-86 1537.0232,-122"/>
<text text-anchor="middle" x="1488" y="-99.8" font-family="Times,serif" font-size="14.00" fill="#000000">styleDirective </text>
</g>
<!-- Ng4GroupMultiSelect&#45;&gt;styleDirective  -->
<g id="edge16" class="edge">
<title>Ng4GroupMultiSelect&#45;&gt;styleDirective </title>
<path fill="none" stroke="#000000" stroke-dasharray="5,2" d="M1012.3593,-226.793C1012.3593,-221.4451 1012.3593,-217 1012.3593,-217 1012.3593,-217 1488,-217 1488,-217 1488,-217 1488,-132.1554 1488,-132.1554"/>
<polygon fill="#000000" stroke="#000000" points="1491.5001,-132.1554 1488,-122.1554 1484.5001,-132.1554 1491.5001,-132.1554"/>
</g>
<!-- ClickOutsideDirective -->
<g id="node5" class="node">
<title>ClickOutsideDirective</title>
<polygon fill="#ffffb3" stroke="#000000" points="1040.9622,-187 899.0378,-187 899.0378,-151 1040.9622,-151 1040.9622,-187"/>
<text text-anchor="middle" x="970" y="-164.8" font-family="Times,serif" font-size="14.00" fill="#000000">ClickOutsideDirective</text>
</g>
<!-- ClickOutsideDirective&#45;&gt;Ng4GroupMultiSelect -->
<g id="edge4" class="edge">
<title>ClickOutsideDirective&#45;&gt;Ng4GroupMultiSelect</title>
<path fill="none" stroke="#000000" d="M927.6407,-187.0109C927.6407,-187.0109 927.6407,-216.855 927.6407,-216.855"/>
<polygon fill="#000000" stroke="#000000" points="924.1408,-216.8549 927.6407,-226.855 931.1408,-216.855 924.1408,-216.8549"/>
</g>
<!-- FilterPipe -->
<g id="node6" class="node">
<title>FilterPipe</title>
<polygon fill="#ffffb3" stroke="#000000" points="880.7177,-187 809.2823,-187 809.2823,-151 880.7177,-151 880.7177,-187"/>
<text text-anchor="middle" x="845" y="-164.8" font-family="Times,serif" font-size="14.00" fill="#000000">FilterPipe</text>
</g>
<!-- FilterPipe&#45;&gt;Ng4GroupMultiSelect -->
<g id="edge5" class="edge">
<title>FilterPipe&#45;&gt;Ng4GroupMultiSelect</title>
<path fill="none" stroke="#000000" d="M845,-187.1289C845,-207.5724 845,-238 845,-238 845,-238 889.0998,-238 889.0998,-238"/>
<polygon fill="#000000" stroke="#000000" points="889.0998,-241.5001 899.0998,-238 889.0998,-234.5001 889.0998,-241.5001"/>
</g>
<!-- GroupMultiSelectComponent -->
<g id="node7" class="node">
<title>GroupMultiSelectComponent</title>
<polygon fill="#ffffb3" stroke="#000000" points="791.4241,-187 608.5759,-187 608.5759,-151 791.4241,-151 791.4241,-187"/>
<text text-anchor="middle" x="700" y="-164.8" font-family="Times,serif" font-size="14.00" fill="#000000">GroupMultiSelectComponent</text>
</g>
<!-- GroupMultiSelectComponent&#45;&gt;Ng4GroupMultiSelect -->
<g id="edge6" class="edge">
<title>GroupMultiSelectComponent&#45;&gt;Ng4GroupMultiSelect</title>
<path fill="none" stroke="#000000" d="M700,-187.2921C700,-209.2057 700,-243 700,-243 700,-243 889.0607,-243 889.0607,-243"/>
<polygon fill="#000000" stroke="#000000" points="889.0607,-246.5001 899.0607,-243 889.0606,-239.5001 889.0607,-246.5001"/>
</g>
<!-- ScrollDirective -->
<g id="node8" class="node">
<title>ScrollDirective</title>
<polygon fill="#ffffb3" stroke="#000000" points="590.5229,-187 489.4771,-187 489.4771,-151 590.5229,-151 590.5229,-187"/>
<text text-anchor="middle" x="540" y="-164.8" font-family="Times,serif" font-size="14.00" fill="#000000">ScrollDirective</text>
</g>
<!-- ScrollDirective&#45;&gt;Ng4GroupMultiSelect -->
<g id="edge9" class="edge">
<title>ScrollDirective&#45;&gt;Ng4GroupMultiSelect</title>
<path fill="none" stroke="#000000" d="M540,-187.3228C540,-210.6602 540,-248 540,-248 540,-248 888.9942,-248 888.9942,-248"/>
<polygon fill="#000000" stroke="#000000" points="888.9943,-251.5001 898.9942,-248 888.9942,-244.5001 888.9943,-251.5001"/>
</g>
<!-- setPosition -->
<g id="node9" class="node">
<title>setPosition</title>
<polygon fill="#ffffb3" stroke="#000000" points="471.9501,-187 394.0499,-187 394.0499,-151 471.9501,-151 471.9501,-187"/>
<text text-anchor="middle" x="433" y="-164.8" font-family="Times,serif" font-size="14.00" fill="#000000">setPosition</text>
</g>
<!-- setPosition&#45;&gt;Ng4GroupMultiSelect -->
<g id="edge10" class="edge">
<title>setPosition&#45;&gt;Ng4GroupMultiSelect</title>
<path fill="none" stroke="#000000" d="M433,-187.2267C433,-211.9318 433,-253 433,-253 433,-253 889.2444,-253 889.2444,-253"/>
<polygon fill="#000000" stroke="#000000" points="889.2445,-256.5001 899.2444,-253 889.2444,-249.5001 889.2445,-256.5001"/>
</g>
<!-- styleDirective -->
<g id="node10" class="node">
<title>styleDirective</title>
<polygon fill="#ffffb3" stroke="#000000" points="376.0244,-187 281.9756,-187 281.9756,-151 376.0244,-151 376.0244,-187"/>
<text text-anchor="middle" x="329" y="-164.8" font-family="Times,serif" font-size="14.00" fill="#000000">styleDirective</text>
</g>
<!-- styleDirective&#45;&gt;Ng4GroupMultiSelect -->
<g id="edge11" class="edge">
<title>styleDirective&#45;&gt;Ng4GroupMultiSelect</title>
<path fill="none" stroke="#000000" d="M329,-187.0105C329,-213.0165 329,-258 329,-258 329,-258 889.2607,-258 889.2607,-258"/>
<polygon fill="#000000" stroke="#000000" points="889.2607,-261.5001 899.2607,-258 889.2606,-254.5001 889.2607,-261.5001"/>
</g>
<!-- DROPDOWN_CONTROL_VALUE_ACCESSOR -->
<g id="node11" class="node">
<title>DROPDOWN_CONTROL_VALUE_ACCESSOR</title>
<ellipse fill="#fdb462" stroke="#000000" cx="616" cy="-104" rx="209.5159" ry="18"/>
<text text-anchor="middle" x="616" y="-99.8" font-family="Times,serif" font-size="14.00" fill="#000000">DROPDOWN_CONTROL_VALUE_ACCESSOR</text>
</g>
<!-- DROPDOWN_CONTROL_VALUE_ACCESSOR&#45;&gt;GroupMultiSelectComponent -->
<g id="edge7" class="edge">
<title>DROPDOWN_CONTROL_VALUE_ACCESSOR&#45;&gt;GroupMultiSelectComponent</title>
<path fill="none" stroke="#000000" d="M730.4039,-119.4041C730.4039,-119.4041 730.4039,-140.9397 730.4039,-140.9397"/>
<polygon fill="#000000" stroke="#000000" points="726.904,-140.9397 730.4039,-150.9397 733.904,-140.9398 726.904,-140.9397"/>
</g>
<!-- DROPDOWN_CONTROL_VALIDATION -->
<g id="node12" class="node">
<title>DROPDOWN_CONTROL_VALIDATION</title>
<ellipse fill="#fdb462" stroke="#000000" cx="206" cy="-104" rx="182.2476" ry="18"/>
<text text-anchor="middle" x="206" y="-99.8" font-family="Times,serif" font-size="14.00" fill="#000000">DROPDOWN_CONTROL_VALIDATION</text>
</g>
<!-- DROPDOWN_CONTROL_VALIDATION&#45;&gt;GroupMultiSelectComponent -->
<g id="edge8" class="edge">
<title>DROPDOWN_CONTROL_VALIDATION&#45;&gt;GroupMultiSelectComponent</title>
<path fill="none" stroke="#000000" d="M382.1927,-108.5885C382.1927,-117.656 382.1927,-137 382.1927,-137 382.1927,-137 669.5961,-137 669.5961,-137 669.5961,-137 669.5961,-140.7566 669.5961,-140.7566"/>
<polygon fill="#000000" stroke="#000000" points="666.0962,-140.7566 669.5961,-150.7566 673.0962,-140.7566 666.0962,-140.7566"/>
</g>
</g>
</svg>
